<?xml version="1.0" encoding="utf-8"?>
<!-- Generator: Adobe Illustrator 15.1.0, SVG Export Plug-In . SVG Version: 6.00 Build 0)  -->
<!DOCTYPE svg PUBLIC "-//W3C//DTD SVG 1.0//EN" "http://www.w3.org/TR/2001/REC-SVG-20010904/DTD/svg10.dtd">
<svg version="1.0" xmlns="http://www.w3.org/2000/svg" xmlns:xlink="http://www.w3.org/1999/xlink" x="0px" y="0px" width="1280px"
	 height="720px" viewBox="0 0 1280 720" enable-background="new 0 0 1280 720" xml:space="preserve">
<g id="Layer_1">
	<polygon fill="none" stroke="#256131" stroke-miterlimit="10" points="177.154,464.58 158.9,378.383 188.309,361.145 
		175.126,363.172 171.068,357.088 154.843,365.201 130.505,316.526 117.322,309.428 128.476,280.02 138.617,273.936 137.603,240.47 
		73.715,251.624 73.715,260.751 69.658,262.779 90.953,299.285 32.143,372.303 31.129,372.303 31.129,704.922 211.636,704.922 
		209.608,702.893 	"/>
</g>
<g id="Layer_2">
	<path fill="none" stroke="#333333" stroke-miterlimit="10" d="M1276.855,455.5L1124.91,302.927l-50.648,50.325L972.966,251.799
		l-50.562,50.48l-21.39-21.43l-25.411,25.389l-3.927-3.938l-19.06,19.055l-85.015-85.016l-66.706,66.701l-22.231-22.23
		l-41.458,41.457l-28.757-28.756l-35.315,35.312l-70.629-70.629l-52.972,52.969l-17.655-16.958L308.274,418.5h234.085l-19.345,19
		h214.493l-43.102,44h354.534l-25.328-26H1276.855z"/>
</g>
<g id="Layer_3">
</g>
</svg>
